<svg width="71" height="71" viewBox="0 0 71 71" fill="none" xmlns="http://www.w3.org/2000/svg">
<path d="M52.1406 17.75C47.4347 17.7556 42.9232 19.6275 39.5956 22.955C36.2681 26.2826 34.3962 30.7941 34.3906 35.5V43.2656H3.32812V39.9375C3.32812 39.6433 3.21124 39.3611 3.0032 39.1531C2.79515 38.945 2.51297 38.8281 2.21875 38.8281C1.92453 38.8281 1.64235 38.945 1.4343 39.1531C1.22626 39.3611 1.10938 39.6433 1.10938 39.9375V52.1406C1.10938 52.4348 1.22626 52.717 1.4343 52.9251C1.64235 53.1331 1.92453 53.25 2.21875 53.25H52.1406C56.8482 53.25 61.363 51.3799 64.6918 48.0511C68.0205 44.7224 69.8906 40.2076 69.8906 35.5C69.8906 30.7924 68.0205 26.2776 64.6918 22.9489C61.363 19.6201 56.8482 17.75 52.1406 17.75ZM3.32812 45.4844H6.65625V47.7031C6.65625 47.9973 6.77313 48.2795 6.98118 48.4876C7.18923 48.6956 7.4714 48.8125 7.76562 48.8125C8.05985 48.8125 8.34202 48.6956 8.55007 48.4876C8.75812 48.2795 8.875 47.9973 8.875 47.7031V45.4844H12.2031V46.5938C12.2031 46.888 12.32 47.1701 12.5281 47.3782C12.7361 47.5862 13.0183 47.7031 13.3125 47.7031C13.6067 47.7031 13.8889 47.5862 14.0969 47.3782C14.305 47.1701 14.4219 46.888 14.4219 46.5938V45.4844H17.75V47.7031C17.75 47.9973 17.8669 48.2795 18.0749 48.4876C18.283 48.6956 18.5652 48.8125 18.8594 48.8125C19.1536 48.8125 19.4358 48.6956 19.6438 48.4876C19.8519 48.2795 19.9688 47.9973 19.9688 47.7031V45.4844H23.2969V46.5938C23.2969 46.888 23.4138 47.1701 23.6218 47.3782C23.8299 47.5862 24.112 47.7031 24.4062 47.7031C24.7005 47.7031 24.9826 47.5862 25.1907 47.3782C25.3987 47.1701 25.5156 46.888 25.5156 46.5938V45.4844H28.8438V47.7031C28.8438 47.9973 28.9606 48.2795 29.1687 48.4876C29.3767 48.6956 29.6589 48.8125 29.9531 48.8125C30.2473 48.8125 30.5295 48.6956 30.7376 48.4876C30.9456 48.2795 31.0625 47.9973 31.0625 47.7031V45.4844H34.3906V51.0312H3.32812V45.4844ZM52.1406 51.0312H36.6094V35.5C36.6094 32.4282 37.5203 29.4254 39.2269 26.8713C40.9335 24.3172 43.3591 22.3265 46.1971 21.151C49.035 19.9755 52.1579 19.6679 55.1706 20.2672C58.1834 20.8665 60.9508 22.3457 63.1229 24.5177C65.295 26.6898 66.7742 29.4572 67.3735 32.47C67.9727 35.4828 67.6652 38.6056 66.4896 41.4436C65.3141 44.2815 63.3234 46.7072 60.7693 48.4138C58.2152 50.1204 55.2124 51.0312 52.1406 51.0312Z" fill="white"/>
<path d="M52.1406 26.625C50.3853 26.625 48.6694 27.1455 47.2099 28.1207C45.7505 29.0959 44.6129 30.482 43.9412 32.1037C43.2695 33.7254 43.0937 35.5098 43.4362 37.2314C43.7786 38.953 44.6239 40.5344 45.8651 41.7756C47.1062 43.0168 48.6876 43.862 50.4092 44.2045C52.1308 44.5469 53.9152 44.3712 55.5369 43.6994C57.1586 43.0277 58.5447 41.8902 59.5199 40.4307C60.4951 38.9712 61.0156 37.2553 61.0156 35.5C61.013 33.147 60.0771 30.8912 58.4133 29.2273C56.7495 27.5635 54.4936 26.6276 52.1406 26.625ZM52.1406 42.1562C50.8241 42.1562 49.5372 41.7659 48.4426 41.0345C47.348 40.3031 46.4948 39.2635 45.9911 38.0472C45.4873 36.831 45.3554 35.4926 45.6123 34.2014C45.8691 32.9102 46.5031 31.7242 47.4339 30.7933C48.3648 29.8624 49.5509 29.2285 50.8421 28.9716C52.1332 28.7148 53.4716 28.8466 54.6879 29.3504C55.9041 29.8542 56.9437 30.7074 57.6751 31.802C58.4065 32.8966 58.7969 34.1835 58.7969 35.5C58.7951 37.2648 58.0933 38.9568 56.8454 40.2047C55.5975 41.4526 53.9054 42.1545 52.1406 42.1562Z" fill="white"/>
<path d="M51.0312 46.5938H44.375C44.0808 46.5938 43.7986 46.7106 43.5906 46.9187C43.3825 47.1267 43.2656 47.4089 43.2656 47.7031C43.2656 47.9973 43.3825 48.2795 43.5906 48.4876C43.7986 48.6956 44.0808 48.8125 44.375 48.8125H51.0312C51.3255 48.8125 51.6076 48.6956 51.8157 48.4876C52.0237 48.2795 52.1406 47.9973 52.1406 47.7031C52.1406 47.4089 52.0237 47.1267 51.8157 46.9187C51.6076 46.7106 51.3255 46.5938 51.0312 46.5938Z" fill="white"/>
<path d="M41.0469 46.5938H39.9375C39.6433 46.5938 39.3611 46.7106 39.1531 46.9187C38.945 47.1267 38.8281 47.4089 38.8281 47.7031C38.8281 47.9973 38.945 48.2795 39.1531 48.4876C39.3611 48.6956 39.6433 48.8125 39.9375 48.8125H41.0469C41.3411 48.8125 41.6233 48.6956 41.8313 48.4876C42.0394 48.2795 42.1562 47.9973 42.1562 47.7031C42.1562 47.4089 42.0394 47.1267 41.8313 46.9187C41.6233 46.7106 41.3411 46.5938 41.0469 46.5938Z" fill="white"/>
</svg>
