<svg width="16" height="30" viewBox="0 0 16 30" fill="none" xmlns="http://www.w3.org/2000/svg">
<path d="M14.6875 0.375065H10.352C4.83027 0.319815 4.12502 3.73719 4.12502 7.43569V10.1251H1.68752C1.57735 10.1103 1.46527 10.1212 1.35998 10.1569C1.2547 10.1925 1.15905 10.2519 1.08045 10.3305C1.00186 10.4091 0.942438 10.5047 0.906809 10.61C0.871181 10.7153 0.860302 10.8274 0.875018 10.9376V15.8126C0.860302 15.9227 0.871181 16.0348 0.906809 16.1401C0.942438 16.2454 1.00186 16.341 1.08045 16.4196C1.15905 16.4982 1.2547 16.5576 1.35998 16.5933C1.46527 16.6289 1.57735 16.6398 1.68752 16.6251H4.12502V28.8126C4.11148 28.9229 4.12334 29.0349 4.15971 29.14C4.19607 29.2451 4.25597 29.3405 4.33484 29.4189C4.4137 29.4973 4.50944 29.5566 4.61473 29.5923C4.72003 29.6281 4.83211 29.6393 4.94239 29.6251H9.90677C10.3861 29.6803 10.7745 29.2919 10.6218 28.8126L10.625 16.6251H14.6875C14.7977 16.6398 14.9098 16.6289 15.015 16.5933C15.1203 16.5576 15.216 16.4982 15.2946 16.4196C15.3732 16.341 15.4326 16.2454 15.4682 16.1401C15.5039 16.0348 15.5147 15.9227 15.5 15.8126V10.9376C15.5147 10.8274 15.5039 10.7153 15.4682 10.61C15.4326 10.5047 15.3732 10.4091 15.2946 10.3305C15.216 10.2519 15.1203 10.1925 15.015 10.1569C14.9098 10.1212 14.7977 10.1103 14.6875 10.1251H10.6201L10.625 7.68757C10.7826 6.64919 10.7826 6.81819 11.7463 6.87507H14.6534C14.8793 6.82469 15.1198 6.85232 15.2888 6.68819C15.4578 6.52407 15.5553 6.29982 15.4984 6.06257V1.18757C15.5134 1.07748 15.5028 0.965425 15.4673 0.860124C15.4319 0.754823 15.3727 0.659124 15.2942 0.580486C15.2157 0.501849 15.1201 0.442397 15.0149 0.406766C14.9097 0.371134 14.7976 0.360286 14.6875 0.375065ZM13.8181 5.15907L11.7804 5.08107C9.25677 5.08107 9.04552 6.45094 9.04552 7.85332L9.03902 10.9343C9.0388 11.0484 9.06109 11.1614 9.1046 11.2669C9.14812 11.3724 9.212 11.4682 9.2926 11.549C9.3732 11.6297 9.46893 11.6938 9.57432 11.7375C9.67971 11.7812 9.79268 11.8037 9.90677 11.8037H13.875V14.9432H9.91002C9.67972 14.9432 9.45884 15.0346 9.29585 15.1972C9.13286 15.3599 9.04107 15.5807 9.04064 15.8109L9.03902 28.0001H5.75002V15.8126C5.75002 15.3332 5.42339 14.9448 4.94239 14.9448H2.50002V11.8053H4.94239C5.05641 11.8055 5.16935 11.7832 5.27474 11.7397C5.38014 11.6962 5.47593 11.6324 5.55664 11.5518C5.71914 11.3877 5.74839 11.1667 5.74839 10.9359V7.43407C5.74839 3.79081 6.48452 2.05532 10.3504 2.05532H13.8165V5.15907H13.8181Z" fill="#D4AC89"/>
</svg>
