<svg width="74" height="74" viewBox="0 0 74 74" fill="none" xmlns="http://www.w3.org/2000/svg">
<path d="M64.9386 50.4931C66.9616 46.3049 68.0323 41.6763 68.0323 37C68.0323 32.3237 66.9616 27.6951 64.9386 23.5069C70.1329 22.2143 74 17.5237 74 11.9355C74 5.35426 68.6457 0 62.0645 0C56.468 0 51.7714 3.87784 50.4883 9.0829C49.5585 8.63413 48.6073 8.22713 47.6274 7.87026C46.9554 3.4231 43.1181 0 38.4872 0H35.5128C30.8819 0 27.0446 3.4231 26.3738 7.87026C25.3939 8.22713 24.4427 8.63532 23.5129 9.0829C22.2286 3.87784 17.532 0 11.9355 0C5.35426 0 0 5.35426 0 11.9355C0 17.5237 3.8671 22.2143 9.06142 23.5069C7.03835 27.6951 5.96774 32.3237 5.96774 37C5.96774 41.6763 7.03835 46.3049 9.06142 50.4931C3.8671 51.7857 0 56.4763 0 62.0645C0 68.6457 5.35426 74 11.9355 74C17.5261 74 22.2179 70.1305 23.5081 64.9326C24.013 65.1749 24.5346 65.4029 25.0645 65.6237V74H48.9355V65.6237C49.4654 65.4029 49.987 65.1761 50.4919 64.9326C51.7821 70.1305 56.4739 74 62.0645 74C68.6457 74 74 68.6457 74 62.0645C74 56.4763 70.1329 51.7857 64.9386 50.4931ZM62.0645 2.3871C67.3293 2.3871 71.6129 6.67074 71.6129 11.9355C71.6129 17.2002 67.3293 21.4839 62.0645 21.4839C56.7998 21.4839 52.5161 17.2002 52.5161 11.9355C52.5161 6.67074 56.7998 2.3871 62.0645 2.3871ZM28.6452 9.25478C28.6452 5.46765 31.7257 2.3871 35.5128 2.3871H38.4872C42.2743 2.3871 45.3548 5.46765 45.3548 9.25478V9.71668C44.7067 9.17003 44.1243 8.53506 43.6337 7.79865C42.8699 6.65165 41.5928 5.96774 40.2142 5.96774H33.7846C32.4072 5.96774 31.1289 6.65165 30.3257 7.85952C29.859 8.56013 29.2861 9.18077 28.6452 9.71906V9.25478ZM28.6452 12.617C30.1049 11.7565 31.376 10.588 32.3547 9.1199C32.6734 8.64129 33.2081 8.35484 33.7858 8.35484H40.2154C40.7919 8.35484 41.3278 8.64129 41.6883 9.18316C42.63 10.5951 43.8963 11.7576 45.3548 12.617V13.129C45.3548 17.7349 41.6059 21.4839 37 21.4839C32.3941 21.4839 28.6452 17.7349 28.6452 13.129V12.617ZM40.9924 23.871C40.0877 24.6921 38.5289 25.5777 37 26.1769C35.4711 25.5789 33.9111 24.6921 33.0076 23.871H40.9924ZM2.3871 11.9355C2.3871 6.67074 6.67074 2.3871 11.9355 2.3871C17.2002 2.3871 21.4839 6.67074 21.4839 11.9355C21.4839 17.2002 17.2002 21.4839 11.9355 21.4839C6.67074 21.4839 2.3871 17.2002 2.3871 11.9355ZM11.9355 71.6129C6.67074 71.6129 2.3871 67.3293 2.3871 62.0645C2.3871 56.7998 6.67074 52.5161 11.9355 52.5161C17.2002 52.5161 21.4839 56.7998 21.4839 62.0645C21.4839 67.3293 17.2002 71.6129 11.9355 71.6129ZM25.0645 63.0313C24.6468 62.8415 24.2493 62.6386 23.8519 62.4333C23.8555 62.3104 23.871 62.1886 23.871 62.0645C23.871 55.4833 18.5167 50.129 11.9355 50.129C11.8102 50.129 11.6884 50.1446 11.5631 50.1481C9.47081 46.1032 8.35484 41.5773 8.35484 37C8.35484 32.4227 9.47081 27.8968 11.5631 23.8519C11.6884 23.8555 11.8102 23.871 11.9355 23.871C18.5167 23.871 23.871 18.5167 23.871 11.9355C23.871 11.8137 23.8566 11.6956 23.8531 11.5738C24.6325 11.1704 25.4345 10.8052 26.2581 10.4722V13.129C26.2581 16.502 27.824 19.5133 30.2624 21.4839H28.6452C22.7216 21.4839 17.9032 26.3022 17.9032 32.2258V44.1613C17.9032 48.1107 21.1151 51.3226 25.0645 51.3226V63.0313ZM25.0645 48.9355C22.4315 48.9355 20.2903 46.7943 20.2903 44.1613V34.6129H25.0645V48.9355ZM35.8065 71.6129H27.4516V69.2258H35.8065V71.6129ZM46.5484 71.6129H38.1936V69.2258H46.5484V71.6129ZM46.5484 66.8387H38.1936V53.7097H35.8065V66.8387H27.4516V54.7827C30.1717 54.2277 32.2258 51.8179 32.2258 48.9355H41.7742C41.7742 51.8167 43.8283 54.2277 46.5484 54.7827V66.8387ZM27.4516 52.2965V48.9355H29.8387C29.8387 50.4895 28.8373 51.8024 27.4516 52.2965ZM46.5484 52.2965C45.1627 51.8024 44.1613 50.4895 44.1613 48.9355H46.5484V52.2965ZM46.5484 29.8387V46.5484H27.4516V29.8387H25.0645V32.2258H20.2903C20.2903 27.6199 24.0393 23.871 28.6452 23.871H30.0858C31.1838 26.5075 35.6095 28.2215 36.5978 28.5747L37 28.7204L37.4022 28.5759C38.3893 28.2226 42.8162 26.5087 43.9142 23.8722H45.3548C49.9607 23.8722 53.7097 27.6211 53.7097 32.227H48.9355V32.2258V29.8387H46.5484ZM53.7097 34.6129V44.1613C53.7097 46.7943 51.5685 48.9355 48.9355 48.9355V34.6129H53.7097ZM50.1481 62.4333C49.7507 62.6386 49.3532 62.8415 48.9355 63.0313V51.3226C52.8849 51.3226 56.0968 48.1107 56.0968 44.1613V32.2258C56.0968 26.3022 51.2784 21.4839 45.3548 21.4839H43.7376C46.176 19.5133 47.7419 16.502 47.7419 13.129V10.4722C48.5655 10.8052 49.3675 11.1716 50.1469 11.5738C50.1434 11.6956 50.129 11.8137 50.129 11.9355C50.129 18.5167 55.4833 23.871 62.0645 23.871C62.1898 23.871 62.3116 23.8555 62.4369 23.8519C64.5292 27.8968 65.6452 32.4227 65.6452 37C65.6452 41.5773 64.5292 46.1032 62.4369 50.1481C62.3116 50.1446 62.1898 50.129 62.0645 50.129C55.4833 50.129 50.129 55.4833 50.129 62.0645C50.129 62.1886 50.1446 62.3104 50.1481 62.4333ZM62.0645 71.6129C56.7998 71.6129 52.5161 67.3293 52.5161 62.0645C52.5161 56.7998 56.7998 52.5161 62.0645 52.5161C67.3293 52.5161 71.6129 56.7998 71.6129 62.0645C71.6129 67.3293 67.3293 71.6129 62.0645 71.6129Z" fill="#34447B"/>
<path d="M17.9032 5.96771H5.96774V8.35481H17.9032V5.96771Z" fill="#34447B"/>
<path d="M17.9032 10.7419H5.96774V13.129H17.9032V10.7419Z" fill="#34447B"/>
<path d="M17.9032 15.5161H15.5161V17.9032H17.9032V15.5161Z" fill="#34447B"/>
<path d="M13.129 15.5161H5.96774V17.9032H13.129V15.5161Z" fill="#34447B"/>
<path d="M68.0323 5.96771H56.0968V8.35481H68.0323V5.96771Z" fill="#34447B"/>
<path d="M68.0323 10.7419H56.0968V13.129H68.0323V10.7419Z" fill="#34447B"/>
<path d="M68.0322 15.5161H65.6451V17.9032H68.0322V15.5161Z" fill="#34447B"/>
<path d="M63.2581 15.5161H56.0968V17.9032H63.2581V15.5161Z" fill="#34447B"/>
<path d="M17.9032 56.0968H5.96774V58.4839H17.9032V56.0968Z" fill="#34447B"/>
<path d="M17.9032 60.871H5.96774V63.2581H17.9032V60.871Z" fill="#34447B"/>
<path d="M17.9032 65.6451H15.5161V68.0322H17.9032V65.6451Z" fill="#34447B"/>
<path d="M13.129 65.6451H5.96774V68.0322H13.129V65.6451Z" fill="#34447B"/>
<path d="M68.0323 56.0968H56.0968V58.4839H68.0323V56.0968Z" fill="#34447B"/>
<path d="M68.0323 60.871H56.0968V63.2581H68.0323V60.871Z" fill="#34447B"/>
<path d="M68.0322 65.6451H65.6451V68.0322H68.0322V65.6451Z" fill="#34447B"/>
<path d="M63.2581 65.6451H56.0968V68.0322H63.2581V65.6451Z" fill="#34447B"/>
</svg>
