<svg width="74" height="74" viewBox="0 0 74 74" fill="none" xmlns="http://www.w3.org/2000/svg">
<path d="M61.6667 14.8V4.93333C61.6667 2.20875 59.4579 0 56.7333 0H18.5C8.12643 0 0 4.33393 0 9.86667V49.3333C0 54.8661 8.12643 59.2 18.5 59.2C28.0879 59.2 35.7408 55.5 36.8471 50.5667H48.1V70.3C48.1 72.3435 49.7565 74 51.8 74H74V14.8H61.6667ZM18.5 2.46667C28.0904 2.46667 34.5333 6.29 34.5333 9.86667C34.5333 13.4433 28.0904 17.2667 18.5 17.2667C8.9096 17.2667 2.46667 13.4433 2.46667 9.86667C2.46667 6.29 8.9096 2.46667 18.5 2.46667ZM34.5358 49.3333C34.5333 52.91 28.0904 56.7333 18.5 56.7333C8.9096 56.7333 2.46667 52.91 2.46667 49.3333V14.8617C2.53327 14.9233 2.6196 14.9788 2.68867 15.0393C2.96324 15.281 3.256 15.5153 3.5668 15.7423C3.69013 15.8348 3.81347 15.9273 3.9479 16.0161C4.36107 16.296 4.7952 16.5649 5.2614 16.8177C5.291 16.8338 5.3169 16.8523 5.34773 16.8683C5.84107 17.1347 6.3788 17.3789 6.93257 17.6083C7.0966 17.6774 7.26803 17.7415 7.43823 17.8081C7.85926 17.9726 8.2934 18.1283 8.74063 18.2755C8.9244 18.336 9.11063 18.3989 9.29563 18.4531C9.8975 18.6332 10.5142 18.8009 11.158 18.9465L11.2258 18.9637C11.8906 19.1117 12.5825 19.2326 13.2867 19.3337C13.4951 19.3658 13.706 19.3905 13.9182 19.4188C14.4502 19.4887 14.9916 19.5463 15.5425 19.5915C15.7632 19.61 15.9803 19.6297 16.2035 19.6433C16.9571 19.6914 17.7205 19.7235 18.5012 19.7235C19.2819 19.7235 20.0454 19.6914 20.7989 19.6433C21.0222 19.6297 21.2392 19.6088 21.46 19.5915C22.0108 19.5463 22.5523 19.4887 23.0843 19.4188C23.2952 19.3917 23.5073 19.3658 23.7158 19.3337C24.42 19.2277 25.1119 19.1056 25.7767 18.9637L25.8445 18.9465C26.4871 18.8022 27.105 18.6344 27.7068 18.4531C27.8955 18.3964 28.0768 18.3298 28.2618 18.2755C28.71 18.1292 29.1441 17.9734 29.5642 17.8081C29.7332 17.7415 29.9046 17.6774 30.0699 17.6083C30.6224 17.3752 31.1577 17.1298 31.6547 16.8683C31.6856 16.8523 31.7115 16.8338 31.7411 16.8177C32.2085 16.5649 32.6426 16.2948 33.0546 16.0161C33.1865 15.926 33.3099 15.8348 33.4357 15.7423C33.7472 15.5153 34.04 15.281 34.3138 15.0393C34.3829 14.9788 34.4692 14.9233 34.5358 14.8617V49.3333ZM48.1 12.337V48.1H37V9.86667C36.9988 9.51023 36.9638 9.15457 36.8952 8.80477C36.873 8.6876 36.8286 8.57537 36.799 8.46067C36.7444 8.22942 36.6761 8.00171 36.5942 7.77863C36.5424 7.6442 36.4709 7.51593 36.408 7.38397C36.3143 7.1854 36.2218 6.9856 36.1071 6.79197C36.0257 6.6563 35.9295 6.52557 35.8382 6.39237C35.7149 6.20983 35.5915 6.02237 35.4435 5.85217C35.335 5.71897 35.2141 5.59193 35.0957 5.46243C34.9416 5.29347 34.7837 5.12573 34.6123 4.96293C34.4791 4.8396 34.336 4.71627 34.1929 4.59293C34.0092 4.4363 33.8229 4.2809 33.6219 4.13043C33.4653 4.0071 33.3037 3.89733 33.1372 3.78263C32.9258 3.6371 32.7075 3.49527 32.4823 3.35713C32.3047 3.2486 32.1246 3.1413 31.9384 3.0377C31.7004 2.9045 31.4537 2.77623 31.1984 2.65043C31.0751 2.59123 30.9752 2.5271 30.8555 2.47037H56.7333C58.0957 2.47098 59.1995 3.5759 59.1988 4.93827C59.1982 6.29956 58.0946 7.40308 56.7333 7.4037H53.0333C50.3087 7.4037 48.1 9.61245 48.1 12.337ZM59.2 9.20437V14.8H53.0333C51.671 14.8 50.5667 13.6957 50.5667 12.3333C50.5667 10.971 51.671 9.86667 53.0333 9.86667H56.7333C57.0306 9.86358 57.327 9.83337 57.6189 9.77663C57.6892 9.7643 57.7582 9.75073 57.8273 9.7347C58.1063 9.67396 58.3795 9.58901 58.6438 9.48063L58.6857 9.45967C58.8619 9.38474 59.0337 9.29949 59.2 9.20437ZM71.5333 71.5333H51.8C51.1189 71.5333 50.5667 70.9811 50.5667 70.3V16.5957C50.6592 16.65 50.7603 16.6907 50.8565 16.7388C50.9527 16.7869 51.0723 16.8547 51.187 16.9016C51.3794 16.9751 51.5765 17.0365 51.7766 17.0854C51.8777 17.1125 51.9751 17.1507 52.0787 17.1717C52.3931 17.2343 52.7128 17.2662 53.0333 17.2667H71.5333V71.5333Z" fill="#34447B"/>
<path d="M18.5 4.93335C13.5778 4.93335 9.86667 7.05468 9.86667 9.86668C9.86667 12.6787 13.5778 14.8 18.5 14.8C23.4222 14.8 27.1333 12.6787 27.1333 9.86668C27.1333 7.05468 23.4222 4.93335 18.5 4.93335ZM18.5 12.3333C14.7359 12.3333 12.3333 10.8718 12.3333 9.86668C12.3333 8.86152 14.7359 7.40002 18.5 7.40002C22.2641 7.40002 24.6667 8.86152 24.6667 9.86668C24.6667 10.8718 22.2641 12.3333 18.5 12.3333Z" fill="#34447B"/>
</svg>
