<svg width="71" height="71" viewBox="0 0 71 71" fill="none" xmlns="http://www.w3.org/2000/svg">
<g clip-path="url(#clip0)">
<path d="M63.4218 40.2295C67.6004 40.2295 71 36.8298 71 32.6513C71 28.4727 67.6004 25.0731 63.4218 25.0731H58.4388C58.3299 23.6392 58.1149 22.3224 57.6908 21.1962C56.654 18.4423 54.5143 17.1038 51.1499 17.1038C47.7855 17.1038 45.6463 18.4423 44.609 21.1962C44.1849 22.3224 43.9704 23.6392 43.8609 25.0731H33.0575V5.71101C33.0575 5.13086 32.5873 4.66068 32.0067 4.66068H26.5833V1.18954C26.5833 0.608856 26.1131 0.138672 25.5324 0.138672H7.52512C6.94497 0.138672 6.47424 0.608856 6.47424 1.18954V4.66068H2.25396C2.25125 4.66068 2.24854 4.66068 2.24529 4.66068H1.05087C0.470184 4.66068 0 5.13086 0 5.71101V62.2642C0 62.8444 0.470184 63.3145 1.05087 63.3145H6.47424V66.7862C6.47424 67.3664 6.94497 67.8365 7.52512 67.8365H25.5324C26.1131 67.8365 26.5833 67.3664 26.5833 66.7862V63.3145H32.0067C32.5873 63.3145 33.0575 62.8444 33.0575 62.2642V61.9051C33.0575 61.9045 33.0575 61.9035 33.0575 61.9024V27.1743H43.7661C43.7483 28.0291 43.7477 28.9088 43.7477 29.8036C43.7477 32.343 43.9433 35.2313 44.2656 38.268C40.659 38.8476 37.8943 41.9786 37.8943 45.746C37.8943 49.9246 41.2939 53.3242 45.4725 53.3242H46.5369C47.312 57.5104 48.1186 61.3574 48.7719 64.3221C48.7432 64.3199 48.7139 64.3177 48.6841 64.3177H44.5158C43.9352 64.3177 43.465 64.7879 43.465 65.3686C43.465 65.9488 43.9352 66.419 44.5158 66.419H48.6841C48.8753 66.419 49.0541 66.367 49.2085 66.2776C49.7193 68.5326 50.0714 69.9751 50.1293 70.2129C50.2447 70.6831 50.6662 71.0135 51.1499 71.0135H51.1515C51.6358 71.0125 52.0572 70.6804 52.171 70.2097C52.2278 69.9757 52.561 68.5884 53.048 66.419H58.188C62.3666 66.419 65.7668 63.0193 65.7668 58.8408C65.7668 54.6622 62.3671 51.2626 58.1886 51.2626H57.7834C57.694 51.2371 57.5997 51.223 57.5017 51.223H56.1155C56.7547 47.6165 57.3506 43.8414 57.7931 40.2295H63.4218ZM8.57599 2.23988H24.4821V4.59188H8.57599V2.23988ZM24.4821 65.7353H8.57599V63.3833H24.4821V65.7353ZM2.46034 19.4877C2.33846 19.465 2.21712 19.465 2.1012 19.4839V11.1452L30.9563 16.5816V19.6502L5.93256 14.9354C5.36216 14.8281 4.81343 15.203 4.70564 15.7734C4.59784 16.3438 4.97323 16.8931 5.54362 17.0003L30.9563 21.7883V24.8564L2.46034 19.4877ZM30.9563 40.1981L5.93256 35.4837C5.36216 35.3765 4.81343 35.7513 4.70564 36.3217C4.59784 36.8921 4.97323 37.4414 5.54362 37.5487L30.9563 42.3366V45.3121L2.46034 39.9435C2.33846 39.9207 2.21712 39.9207 2.1012 39.9391V31.7862L30.9563 37.2226V40.1981ZM30.9563 14.443L2.46034 9.07434C2.33846 9.05159 2.21712 9.05213 2.1012 9.07055V6.76188H2.16891L30.9563 12.1852V14.443ZM2.1012 47.1279L27.6098 51.9337C27.6759 51.9462 27.7409 51.9521 27.8053 51.9521C28.301 51.9521 28.7419 51.6006 28.8367 51.0957C28.9445 50.5253 28.5691 49.9766 27.9987 49.8688L2.46034 45.0575C2.33846 45.0342 2.21712 45.0348 2.1012 45.0532V42.0138L30.9563 47.4502V55.5403L2.46034 50.1711C2.33846 50.1483 2.21712 50.1483 2.1012 50.1667V47.1279ZM2.46034 29.7159C2.33846 29.6926 2.21712 29.6931 2.1012 29.7115V26.6721L27.6098 31.4785C27.6759 31.4904 27.7409 31.4969 27.8053 31.4969C28.301 31.4969 28.7419 31.1448 28.8367 30.6405C28.9445 30.0701 28.5691 29.5209 27.9987 29.4136L2.46034 24.6018C2.33846 24.579 2.21712 24.579 2.1012 24.598V21.5586L30.9563 26.995V35.0845L2.46034 29.7159ZM30.9563 10.0472L13.5178 6.76188H30.9563V10.0472ZM2.1012 52.2419L30.9563 57.6783V60.6538L5.93256 55.9395C5.36216 55.8317 4.81343 56.2071 4.70564 56.7775C4.59784 57.3473 4.97323 57.8966 5.54362 58.0044L22.577 61.2133H2.1012V52.2419ZM63.4218 27.1743C66.4417 27.1743 68.8988 29.6314 68.8988 32.6513C68.8988 35.6712 66.4417 38.1283 63.4218 38.1283H58.0353C58.357 35.1192 58.552 32.2759 58.552 29.8031C58.552 28.9088 58.5515 28.0291 58.5336 27.1743H63.4218ZM45.4719 51.223C42.452 51.223 39.9949 48.7659 39.9949 45.746C39.9949 43.0565 41.9439 40.815 44.5034 40.3568C44.94 43.9433 45.5261 47.669 46.1561 51.223H45.4719ZM51.1439 65.2874C50.5535 62.6515 49.7772 59.0423 49.0059 55.0305C48.8954 54.4553 48.7881 53.8876 48.683 53.3242H53.5891C53.4932 53.8388 53.3963 54.3572 53.2955 54.8816C52.5187 58.9458 51.7365 62.6152 51.1439 65.2874ZM63.665 58.8408C63.665 61.8607 61.2085 64.3177 58.188 64.3177H53.5133C54.159 61.3591 54.9579 57.5255 55.7277 53.3638H58.188C61.2085 53.3638 63.665 55.8208 63.665 58.8408ZM48.2995 51.223C46.6929 42.2229 45.8489 34.8689 45.8489 29.8036C45.8489 28.9055 45.8495 28.0231 45.8679 27.1743H48.247C48.2773 32.4016 50.0432 41.4033 50.119 41.7868C50.2166 42.2792 50.6483 42.634 51.1499 42.634H51.151C51.6536 42.6335 52.0854 42.2776 52.1813 41.7841C52.2576 41.3914 54.0533 32.1096 54.0533 27.0394C54.0533 25.8173 54.0533 24.6636 53.7765 23.7514C53.3887 22.4735 52.4559 21.7699 51.1499 21.7699C49.8433 21.7699 48.9105 22.4735 48.5232 23.7514C48.4019 24.15 48.3358 24.5964 48.2974 25.0731H45.9686C46.0672 23.8808 46.246 22.8099 46.5753 21.9367C47.2963 20.0218 48.6646 19.205 51.1499 19.205C53.6351 19.205 55.0034 20.0218 55.7244 21.9367C56.4508 23.8656 56.4508 26.7496 56.4508 29.8031C56.4508 34.7633 55.5971 42.1205 53.9721 51.223H48.2995ZM51.951 27.1743C51.9359 29.4158 51.5567 32.5565 51.1455 35.3169C50.7382 32.5808 50.3633 29.4602 50.3487 27.1743H51.951ZM50.4089 25.0731C50.5074 23.9994 50.7339 23.8711 51.1499 23.8711C51.5659 23.8711 51.7923 23.9994 51.8909 25.0731H50.4089Z" fill="white"/>
</g>
<defs>
<clipPath id="clip0">
<rect width="71" height="71" fill="white"/>
</clipPath>
</defs>
</svg>
