<svg width="74" height="74" viewBox="0 0 74 74" fill="none" xmlns="http://www.w3.org/2000/svg">
<g clip-path="url(#clip0)">
<path d="M16.0859 18.4529C13.5439 18.4529 11.4758 20.5197 11.4758 23.0601C11.4758 25.6028 13.5439 27.6717 16.0859 27.6717C18.6302 27.6717 20.7002 25.603 20.7002 23.0601C20.7002 20.5197 18.6302 18.4529 16.0859 18.4529ZM16.0859 25.5037C14.7393 25.5037 13.6438 24.4076 13.6438 23.0601C13.6438 21.7151 14.7393 20.6208 16.0859 20.6208C17.4348 20.6208 18.5323 21.7151 18.5323 23.0601C18.5323 24.4076 17.4348 25.5037 16.0859 25.5037Z" fill="#34447B"/>
<path d="M72.0688 19.8762H68.0069V14.9759C68.0069 13.0921 66.4735 11.5596 64.5887 11.5596H64.4102V6.72576C64.4102 4.41182 62.5265 2.5293 60.2111 2.5293C57.8936 2.5293 56.008 4.41182 56.008 6.72576V11.5596H52.5313V6.72576C52.5313 4.41182 50.6478 2.5293 48.3324 2.5293C46.0148 2.5293 44.1293 4.41182 44.1293 6.72576V11.5596H29.8707V7.63457C29.8707 6.5357 28.9782 5.64178 27.8812 5.64178H16.3433C14.1151 5.64178 12.3021 7.45536 12.3021 9.68475V11.5655C8.52344 11.6867 5.48641 14.7941 5.48641 18.599V30.9577C5.48641 31.9879 6.32295 32.8261 7.35129 32.8261H7.70438V34.7757C7.70438 37.0484 9.55453 38.8975 11.8286 38.8975H14.873V43.7937C14.873 44.3923 15.3583 44.8777 15.957 44.8777C16.5556 44.8777 17.041 44.3923 17.041 43.7937V38.8975H20.0854C22.3571 38.8975 24.2054 37.0486 24.2054 34.7757V32.8259H24.8201C25.704 32.8259 26.4232 32.1069 26.4232 31.2232V28.8288C26.4232 26.6919 28.1635 24.9535 30.3024 24.9535H47.1817C49.9536 24.9535 54.6038 25.6661 54.6038 30.439V48.9149C54.6038 52.9122 51.4326 54.8714 48.0415 55.152V52.8074C48.0415 50.8481 46.4466 49.2542 44.4861 49.2542H11.0312C9.07093 49.2542 7.47602 50.8481 7.47602 52.8074V55.3037C5.14358 55.8026 3.38911 57.8762 3.38911 60.3521V63.4679H3.37668C1.51469 63.4679 0 64.9836 0 66.8467V68.0917C0 69.955 1.51469 71.4707 3.37668 71.4707H68.8126C70.6745 71.4707 72.1892 69.955 72.1892 68.0919V66.8469C72.1892 64.9837 70.6745 63.468 68.8126 63.468H68.0069V50.2271H69.4231C71.9469 50.2271 74.0001 48.1752 74.0001 45.6529V21.8069C74 20.7424 73.1337 19.8762 72.0688 19.8762ZM58.1759 6.72576C58.1759 5.60723 59.0887 4.69727 60.211 4.69727C61.331 4.69727 62.2421 5.60723 62.2421 6.72576V11.5596H58.1759V6.72576ZM46.2973 6.72576C46.2973 5.60723 47.2101 4.69727 48.3324 4.69727C49.4522 4.69727 50.3634 5.60723 50.3634 6.72576V11.5596H46.2973V6.72576ZM31.3867 13.7276H40.6903V22.7854H31.3867V13.7276ZM16.3434 7.80975H27.7029V11.5596H14.4702V9.68475C14.4702 8.65077 15.3105 7.80975 16.3434 7.80975ZM22.0377 34.7755C22.0377 35.8529 21.162 36.7294 20.0857 36.7294H11.8287C10.7501 36.7294 9.8725 35.853 9.8725 34.7755V32.8259H22.0377V34.7755ZM24.2555 28.8286V30.658H7.65452V18.5989C7.65452 15.9129 9.84186 13.7276 12.5306 13.7276H29.2187V22.8845C26.4001 23.3967 24.2555 25.8663 24.2555 28.8286ZM11.0312 51.4221H44.4864C45.2514 51.4221 45.8738 52.0435 45.8738 52.8072V55.1885H9.64399V52.8074C9.64399 52.0435 10.2663 51.4221 11.0312 51.4221ZM71.832 45.6528C71.832 46.9796 70.7512 48.059 69.423 48.059H68.0067V37.0457C68.0067 36.447 67.5215 35.9617 66.9227 35.9617C66.3239 35.9617 65.8388 36.447 65.8388 37.0457V63.4679H34.6222C34.0235 63.4679 33.5382 63.9532 33.5382 64.5518C33.5382 65.1505 34.0235 65.6358 34.6222 65.6358H68.8125C69.4789 65.6358 70.0211 66.1791 70.0211 66.8467V68.0917C70.0211 68.7594 69.4789 69.3026 68.8125 69.3026H3.37668C2.71025 69.3026 2.16797 68.7593 2.16797 68.0917V66.8467C2.16797 66.179 2.71011 65.6358 3.37668 65.6358H29.5468C30.1455 65.6358 30.6308 65.1505 30.6308 64.5518C30.6308 63.9532 30.1455 63.4679 29.5468 63.4679H5.55708V60.3521C5.55708 58.7004 6.90411 57.3565 8.56001 57.3565H47.1819C52.8283 57.3565 56.772 53.885 56.772 48.9146V30.4389C56.772 25.6465 53.1869 22.7854 47.1819 22.7854H42.8583V13.7276H64.5886C65.278 13.7276 65.8388 14.2876 65.8388 14.9759V31.9742C65.8388 32.5729 66.3239 33.0582 66.9227 33.0582C67.5215 33.0582 68.0067 32.5729 68.0067 31.9742V22.0441H71.832V45.6528Z" fill="#34447B"/>
</g>
<defs>
<clipPath id="clip0">
<rect width="74" height="74" fill="white"/>
</clipPath>
</defs>
</svg>
