<svg width="71" height="71" viewBox="0 0 71 71" fill="none" xmlns="http://www.w3.org/2000/svg">
<g clip-path="url(#clip0)">
<path d="M71 20.1166C70.9948 15.544 67.2893 11.8385 62.7167 11.8333H27.2167C26.4901 11.8307 25.7668 11.9299 25.0677 12.128C24.6252 12.2345 12.9362 16.6412 6.00777 19.2575H5.9983C4.64792 19.6344 3.41907 20.3567 2.43292 21.3532C0.866411 22.901 -0.0105681 25.0145 -1.58696e-05 27.2166C0.00194844 30.1279 1.53334 32.824 4.03278 34.3166C1.53438 35.8103 0.00336294 38.5058 -1.58696e-05 41.4166C0.00460775 44.3287 1.53803 47.0244 4.0387 48.5166C0.838497 50.424 -0.692589 54.2347 0.29833 57.8259C1.28925 61.4172 4.55783 63.9036 8.28332 63.9H43.7833C45.0076 63.8989 46.2161 63.624 47.3203 63.0953C47.329 63.0959 47.3377 63.0959 47.3463 63.0953L66.385 55.9444C69.104 54.605 70.8715 51.8846 70.9908 48.8559C71.11 45.8273 69.5618 42.9764 66.9565 41.4273C67.547 41.0851 68.0881 40.6638 68.5647 40.1753C70.1309 38.6291 71.0086 36.5175 71 34.3166C70.9896 31.4089 69.459 28.7184 66.9648 27.2237C67.5527 26.8817 68.0917 26.4618 68.5671 25.9753C70.1324 24.4287 71.0093 22.3171 71 20.1166ZM25.7197 14.4023C26.207 14.2661 26.7107 14.198 27.2167 14.2H62.7167C65.9827 14.2039 68.6294 16.8506 68.6333 20.1166C68.6406 21.687 68.0148 23.194 66.8974 24.2974C66.4953 24.7158 66.0247 25.0624 65.5058 25.3221C65.4419 25.3564 65.3874 25.3884 65.3271 25.4192C63.7308 26.0108 60.9204 27.0663 56.5645 28.7017L51.3058 30.6767C52.488 28.1129 52.2818 25.1233 50.759 22.7459C49.2361 20.3686 46.6066 18.9314 43.7833 18.9333H13.5752C19.467 16.7146 25.2381 14.555 25.7197 14.4023ZM2.36665 27.2166C2.3599 25.6435 2.98789 24.1341 4.10852 23.03C4.82378 22.3038 5.72076 21.7828 6.70593 21.5213C6.73552 21.5118 6.76983 21.5011 6.80415 21.4881C7.28698 21.3616 7.7842 21.2984 8.28332 21.3H43.7833C47.0494 21.3039 49.6961 23.9506 49.7 27.2166C49.6914 29.4305 48.4559 31.4571 46.492 32.4789C46.4573 32.4922 46.4234 32.5072 46.3902 32.5239C45.5811 32.9287 44.6881 33.1374 43.7833 33.1333H8.28332C5.01725 33.1294 2.37056 30.4827 2.36665 27.2166ZM2.36665 41.4166C2.37251 38.1514 5.01806 35.5058 8.28332 35.5H43.7833C47.0494 35.5039 49.6961 38.1506 49.7 41.4166C49.6914 43.6305 48.4559 45.6571 46.492 46.6789C46.4573 46.6922 46.4234 46.7072 46.3902 46.7239C45.5811 47.1287 44.6881 47.3374 43.7833 47.3333H8.28332C5.01725 47.3294 2.37056 44.6827 2.36665 41.4166ZM8.28332 61.5333C5.01563 61.5333 2.36665 58.8843 2.36665 55.6166C2.36665 52.3489 5.01563 49.7 8.28332 49.7H43.7833C47.051 49.7 49.7 52.3489 49.7 55.6166C49.7 58.8843 47.051 61.5333 43.7833 61.5333H8.28332ZM68.6333 48.5166C68.6405 50.0867 68.0152 51.5936 66.8986 52.6973C66.4731 53.1281 65.9842 53.4913 65.449 53.7742L51.2975 59.0814C53.0609 55.2918 51.7074 50.7822 48.1486 48.59L63.7686 42.7301C66.575 43.2308 68.6222 45.666 68.6333 48.5166ZM68.6333 34.3166C68.6406 35.887 68.0148 37.394 66.8974 38.4974C66.4953 38.9158 66.0247 39.2624 65.5058 39.5221C65.4407 39.5576 65.3792 39.5896 65.3247 39.6203L51.3046 44.8779C53.0572 41.0869 51.7023 36.5842 48.1486 34.39L57.3917 30.9181C60.092 29.904 62.1901 29.1159 63.7817 28.5207C66.583 29.0333 68.6217 31.4688 68.6333 34.3166Z" fill="white"/>
<path d="M46.15 27.2165C46.15 26.563 45.6202 26.0332 44.9667 26.0332H7.09999C6.44645 26.0332 5.91666 26.563 5.91666 27.2165C5.91666 27.8701 6.44645 28.3999 7.09999 28.3999H44.9667C45.6202 28.3999 46.15 27.8701 46.15 27.2165Z" fill="white"/>
<path d="M46.15 41.4167C46.15 40.7632 45.6202 40.2334 44.9667 40.2334H7.09999C6.44645 40.2334 5.91666 40.7632 5.91666 41.4167C5.91666 42.0703 6.44645 42.6001 7.09999 42.6001H44.9667C45.6202 42.6001 46.15 42.0703 46.15 41.4167Z" fill="white"/>
<path d="M44.9667 54.4336H7.09999C6.44645 54.4336 5.91666 54.9634 5.91666 55.6169C5.91666 56.2705 6.44645 56.8002 7.09999 56.8002H44.9667C45.6202 56.8002 46.15 56.2705 46.15 55.6169C46.15 54.9634 45.6202 54.4336 44.9667 54.4336Z" fill="white"/>
<path d="M11.8333 2.3667C11.1798 2.3667 10.65 2.8965 10.65 3.55003V5.9167C10.65 6.57024 11.1798 7.10003 11.8333 7.10003C12.4869 7.10003 13.0167 6.57024 13.0167 5.9167V3.55003C13.0167 2.8965 12.4869 2.3667 11.8333 2.3667Z" fill="white"/>
<path d="M10.65 13.0168C10.65 13.6703 11.1798 14.2001 11.8333 14.2001C12.4869 14.2001 13.0167 13.6703 13.0167 13.0168V10.6501C13.0167 9.99659 12.4869 9.4668 11.8333 9.4668C11.1798 9.4668 10.65 9.99659 10.65 10.6501V13.0168Z" fill="white"/>
<path d="M9.46666 7.1001H7.09999C6.44645 7.1001 5.91666 7.62989 5.91666 8.28343C5.91666 8.93697 6.44645 9.46677 7.09999 9.46677H9.46666C10.1202 9.46677 10.65 8.93697 10.65 8.28343C10.65 7.62989 10.1202 7.1001 9.46666 7.1001Z" fill="white"/>
<path d="M14.2 9.46677H16.5666C17.2202 9.46677 17.75 8.93697 17.75 8.28343C17.75 7.62989 17.2202 7.1001 16.5666 7.1001H14.2C13.5464 7.1001 13.0166 7.62989 13.0166 8.28343C13.0166 8.93697 13.5464 9.46677 14.2 9.46677Z" fill="white"/>
<path d="M68.8783 64.8385C68.414 64.3901 67.6759 64.3965 67.2195 64.8529C66.763 65.3094 66.7566 66.0474 67.205 66.5118L68.98 68.2868C69.4443 68.7352 70.1824 68.7288 70.6389 68.2723C71.0953 67.8159 71.1017 67.0778 70.6533 66.6135L68.8783 64.8385Z" fill="white"/>
<path d="M63.655 62.9616C64.1193 63.41 64.8574 63.4036 65.3138 62.9471C65.7703 62.4907 65.7767 61.7526 65.3283 61.2883L63.5533 59.5133C63.0889 59.0649 62.3509 59.0713 61.8944 59.5277C61.438 59.9842 61.4316 60.7222 61.88 61.1866L63.655 62.9616Z" fill="white"/>
<path d="M61.88 68.2868C62.3421 68.7487 63.0912 68.7487 63.5533 68.2868L65.3283 66.5118C65.7767 66.0474 65.7703 65.3094 65.3138 64.8529C64.8574 64.3965 64.1193 64.3901 63.655 64.8385L61.88 66.6135C61.4181 67.0756 61.4181 67.8247 61.88 68.2868Z" fill="white"/>
<path d="M68.98 59.5133L67.205 61.2883C66.8974 61.5854 66.7741 62.0254 66.8823 62.4391C66.9906 62.8528 67.3137 63.1759 67.7275 63.2842C68.1412 63.3925 68.5812 63.2692 68.8783 62.9616L70.6533 61.1866C71.1017 60.7222 71.0953 59.9842 70.6388 59.5277C70.1824 59.0713 69.4443 59.0649 68.98 59.5133Z" fill="white"/>
</g>
<defs>
<clipPath id="clip0">
<rect width="71" height="71" fill="white"/>
</clipPath>
</defs>
</svg>
