<svg width="74" height="74" viewBox="0 0 74 74" fill="none" xmlns="http://www.w3.org/2000/svg">
<path d="M67.0625 62.7508V45.0938C67.0625 38.0811 61.3564 32.375 54.3438 32.375C51.9619 32.375 49.7384 33.0456 47.8306 34.1892L42.3361 31.9009C41.9048 31.7206 41.625 31.3008 41.625 30.8337V30.0625H43.9375V24.9253C47.4698 22.5908 49.7188 18.33 49.7188 13.875C49.7188 6.86234 44.0127 1.15625 37 1.15625C29.9873 1.15625 24.2812 6.86234 24.2812 13.875C24.2812 18.33 26.5302 22.5908 30.0625 24.9253V30.0625H32.375V30.8337C32.375 31.3008 32.0952 31.7206 31.6628 31.9009L26.5706 34.0238C24.8143 32.9832 22.7747 32.375 20.5905 32.375C17.4432 32.375 14.4843 33.6018 12.2574 35.8264L12.1175 35.9663C9.05112 36.8821 6.9375 39.6964 6.9375 42.9235V47.4062C6.9375 52.2879 10.3172 56.4747 15.0312 57.5443V58.5837C15.0312 59.0508 14.7514 59.4706 14.319 59.6509L7.20459 62.6156C3.53003 64.1464 1.15625 67.7077 1.15625 71.6875V72.8438H35.8438H38.1562H72.8438V71.6875C72.8438 67.8083 70.5787 64.3418 67.0625 62.7508ZM64.75 45.0938V61.7634L59.6798 59.6509C59.2486 59.4706 58.9688 59.0508 58.9688 58.5837V57.4841C61.1344 55.4017 62.4375 52.4926 62.4375 49.343V44.2601L54.3438 41.5626L46.25 44.2601V49.343C46.25 52.4926 47.5531 55.4006 49.7188 57.4841V58.5837C49.7188 59.0508 49.4389 59.4706 49.0065 59.6509L43.9375 61.7634V45.0938C43.9375 39.3553 48.6064 34.6875 54.3438 34.6875C60.0811 34.6875 64.75 39.3553 64.75 45.0938ZM58.2542 63.5938H50.4333L49.5927 61.9114L49.8968 61.7854C51.0114 61.3217 51.7815 60.3285 51.9792 59.1676C52.6082 59.5238 53.2731 59.8302 53.9795 60.066L54.3438 60.1874L54.7091 60.066C55.4144 59.8313 56.0793 59.5238 56.7094 59.1676C56.906 60.3285 57.6772 61.3217 58.7907 61.7854L59.0948 61.9126L58.2542 63.5938ZM57.0979 65.9062L54.7854 70.5312H53.9021L51.5896 65.9062H57.0979ZM54.3438 57.7408C50.8704 56.4157 48.5625 53.0892 48.5625 49.343V45.9263L54.3438 43.9988L60.125 45.9263V49.343C60.125 53.0892 57.8171 56.4157 54.3438 57.7408ZM32.375 27.75V25.4375H41.625V27.75H32.375ZM36.3294 16.1875H37.6706L37.0925 23.125H36.9075L36.3294 16.1875ZM26.5938 13.875C26.5938 8.13653 31.2627 3.46875 37 3.46875C42.7373 3.46875 47.4062 8.13653 47.4062 13.875C47.4062 17.6004 45.4117 21.2704 42.4297 23.125H39.4131L39.9912 16.1875H41.625C43.5374 16.1875 45.0938 14.6312 45.0938 12.7188C45.0938 10.8063 43.5374 9.25 41.625 9.25H41.44C39.6501 9.25 38.132 10.6468 37.9828 12.4308L37.8637 13.875H36.1374L36.0172 12.4308C35.868 10.6468 34.3499 9.25 32.56 9.25H32.375C30.4626 9.25 28.9062 10.8063 28.9062 12.7188C28.9062 14.6312 30.4626 16.1875 32.375 16.1875H34.0088L34.5869 23.125H31.5703C28.5883 21.2704 26.5938 17.6004 26.5938 13.875ZM40.1832 13.875L40.2872 12.6228C40.3381 12.0273 40.8434 11.5625 41.44 11.5625H41.625C42.2621 11.5625 42.7812 12.0805 42.7812 12.7188C42.7812 13.357 42.2621 13.875 41.625 13.875H40.1832ZM33.8168 13.875H32.375C31.7379 13.875 31.2188 13.357 31.2188 12.7188C31.2188 12.0805 31.7379 11.5625 32.375 11.5625H32.56C33.1566 11.5625 33.6631 12.0273 33.7128 12.6228L33.8168 13.875ZM39.3125 30.0625V30.8337C39.3125 31.4627 39.4882 32.057 39.79 32.575L37 35.3651L34.21 32.575C34.5117 32.057 34.6875 31.4627 34.6875 30.8337V30.0625H39.3125ZM32.4455 34.0793L37 38.6349L41.5545 34.0793L45.6869 35.801C43.7317 37.6232 42.35 40.0467 41.8447 42.7801H32.286C31.9576 39.982 30.6464 37.4856 28.7062 35.6368L32.4455 34.0793ZM9.25 47.4062V42.9235C9.25 40.648 10.7913 38.6731 12.9997 38.1216L13.3108 38.0452L13.8923 37.4625C15.6811 35.6738 18.0606 34.6875 20.5905 34.6875C25.8133 34.6875 30.0625 38.9367 30.0625 44.1595V47.4062C30.0625 50.0332 28.7883 52.3839 26.7996 53.872C27.4112 52.4741 27.75 50.9409 27.75 49.3441V43.9375H25.2398C23.4395 43.9375 21.7467 43.2368 20.4737 41.9638L19.6562 41.1463L18.8388 41.9638C17.5658 43.2368 15.873 43.9375 14.0727 43.9375H11.5625V49.3441C11.5625 50.9409 11.9013 52.4741 12.5129 53.872C10.5242 52.3851 9.25 50.0344 9.25 47.4062ZM24.2107 61.8293L24.8305 62.0872L23.6314 66.2855L21.4172 64.624L24.2107 61.8293ZM22.4463 60.325L19.6562 63.1151L16.8662 60.325C17.0732 59.9701 17.22 59.5816 17.2906 59.1676C17.9196 59.5238 18.5844 59.8302 19.2909 60.066L19.6562 60.1874L20.0216 60.066C20.7269 59.8313 21.3918 59.5238 22.0219 59.1676C22.0925 59.5816 22.2393 59.9701 22.4463 60.325ZM25.4375 49.3441C25.4375 53.0892 23.1296 56.4157 19.6562 57.742C16.1829 56.4169 13.875 53.0904 13.875 49.3441V46.25H14.0727C16.1227 46.25 18.0687 45.5724 19.6562 44.3248C21.2438 45.5724 23.1898 46.25 25.2398 46.25H25.4375V49.3441ZM17.8964 64.6251L15.6822 66.2867L14.482 62.0883L15.1018 61.8305L17.8964 64.6251ZM3.55778 70.5312C3.95206 67.9678 5.64597 65.7698 8.09375 64.75L12.3337 62.9832L14.3814 70.152L19.6562 66.1953L24.9311 70.152L26.9788 62.9832L31.2188 64.75C33.6665 65.7698 35.3604 67.9678 35.7547 70.5312H3.55778ZM32.1091 62.6156L24.9935 59.6509C24.5611 59.4706 24.2812 59.0508 24.2812 58.5837V57.5443C28.9953 56.4747 32.375 52.2868 32.375 47.4062V45.0938H41.625V62.7508C39.5981 63.6678 37.9978 65.2102 37 67.0983C35.9571 65.1246 34.2666 63.514 32.1091 62.6156ZM42.7812 64.75L47.4525 62.8029L51.3167 70.5312H38.2453C38.6396 67.9678 40.3335 65.7698 42.7812 64.75ZM57.3708 70.5312L61.235 62.8029L65.9062 64.75C68.354 65.7698 70.0479 67.9678 70.4422 70.5312H57.3708Z" fill="#34447B"/>
<path d="M52.0312 12.7188H58.9688V15.0312H52.0312V12.7188Z" fill="#34447B"/>
<path d="M49.4358 5.35345L55.4437 1.8847L56.5999 3.88733L50.5921 7.35608L49.4358 5.35345Z" fill="#34447B"/>
<path d="M17.3964 3.89325L18.5526 1.89062L24.5605 5.35937L23.4042 7.362L17.3964 3.89325Z" fill="#34447B"/>
<path d="M15.0312 12.7188H21.9688V15.0312H15.0312V12.7188Z" fill="#34447B"/>
<path d="M17.3956 23.8575L23.4035 20.3887L24.5597 22.3914L18.5518 25.8601L17.3956 23.8575Z" fill="#34447B"/>
<path d="M49.4389 22.3939L50.5952 20.3913L56.6031 23.86L55.4468 25.8627L49.4389 22.3939Z" fill="#34447B"/>
</svg>
