<svg width="60" height="60" viewBox="0 0 60 60" fill="none" xmlns="http://www.w3.org/2000/svg">
<path d="M28.4963 0.00873068C23.6813 0.0668557 13.3294 0.858106 7.53938 6.16998C3.2325 10.4375 1.72875 16.7469 1.5525 24.5487C1.40625 32.3225 1.23 46.9212 15.3019 50.8962V56.9506C15.3019 56.9506 15.2138 59.3731 16.815 59.87C18.7875 60.4944 19.9106 58.6306 21.7856 56.6281L25.2825 52.6737C34.9106 53.4744 42.285 51.6294 43.1344 51.3556C45.0881 50.7312 56.0925 49.325 57.8906 34.7244C59.7356 19.6456 56.9925 10.145 52.0406 5.84748H52.0106C50.5162 4.47123 44.5106 0.0949807 31.0931 0.0462307C31.0931 0.0462307 30.0975 -0.0212693 28.4963 0.00685568V0.00873068ZM28.6613 4.24811C30.0281 4.23873 30.8588 4.29686 30.8588 4.29686C42.2156 4.32686 47.6362 7.74498 48.915 8.89623C53.085 12.47 55.2337 21.035 53.6606 33.6237C52.1662 45.83 43.2412 46.6025 41.5894 47.1294C40.8862 47.3544 34.3912 48.9556 26.2088 48.4287C26.2088 48.4287 20.115 55.7825 18.21 57.6762C17.9081 58.0081 17.5556 58.1056 17.3306 58.0569C17.0081 57.9781 16.9106 57.5787 16.9294 57.0312L16.9875 46.9831C5.05313 43.6831 5.75625 31.2312 5.88375 24.7269C6.03 18.2225 7.25063 12.9012 10.8844 9.29748C15.7762 4.87436 24.5663 4.27811 28.6575 4.24811H28.6613ZM29.5613 10.7506C29.463 10.7496 29.3656 10.7681 29.2745 10.8049C29.1835 10.8418 29.1006 10.8963 29.0307 10.9653C28.9608 11.0343 28.9053 11.1165 28.8673 11.2071C28.8293 11.2977 28.8096 11.3949 28.8094 11.4931C28.8094 11.9131 29.1506 12.245 29.5613 12.245C31.4203 12.2096 33.268 12.5427 34.9977 13.2249C36.7274 13.9071 38.305 14.9251 39.6394 16.22C42.3637 18.8656 43.6912 22.4206 43.7419 27.0687C43.7419 27.4794 44.0737 27.8206 44.4938 27.8206V27.7906C44.6917 27.7911 44.8818 27.7133 45.0227 27.5743C45.1635 27.4352 45.2436 27.246 45.2456 27.0481C45.3367 24.8603 44.9819 22.6768 44.2028 20.6303C43.4237 18.5838 42.2367 16.7172 40.7138 15.1437C37.7456 12.2431 33.9844 10.7487 29.5613 10.7487V10.7506ZM19.6781 12.47C19.1474 12.3924 18.6061 12.499 18.1444 12.7719H18.105C17.033 13.4002 16.0673 14.1945 15.2438 15.125C14.5594 15.9162 14.1881 16.7169 14.0906 17.4875C14.0325 17.9469 14.0719 18.4062 14.2088 18.845L14.2575 18.875C15.0281 21.14 16.035 23.3187 17.265 25.37C18.8494 28.2518 20.7993 30.9169 23.0663 33.2994L23.1338 33.3969L23.2406 33.4756L23.3081 33.5544L23.3869 33.6219C25.7779 35.8955 28.4495 37.8544 31.3369 39.4512C34.6369 41.2475 36.6394 42.0969 37.8412 42.4494V42.4681C38.1937 42.575 38.5144 42.6237 38.8369 42.6237C39.8612 42.5487 40.8308 42.1328 41.5912 41.4425C42.5175 40.6187 43.3029 39.6491 43.9163 38.5719V38.5531C44.4919 37.4694 44.2969 36.4437 43.4662 35.75C41.8028 34.2959 40.0039 33.0044 38.0944 31.8931C36.8156 31.1994 35.5162 31.6194 34.9894 32.3225L33.8662 33.7381C33.2906 34.4412 32.2444 34.3437 32.2444 34.3437L32.2144 34.3625C24.4125 32.3694 22.3313 24.47 22.3313 24.47C22.3313 24.47 22.2338 23.3956 22.9556 22.8481L24.3619 21.7156C25.035 21.1681 25.5038 19.8706 24.7819 18.59C23.6783 16.6778 22.3896 14.8785 20.9344 13.2181C20.6162 12.8267 20.1699 12.5603 19.6744 12.4662L19.6781 12.47ZM30.8588 14.6975C29.8631 14.6975 29.8631 16.2012 30.8681 16.2012C32.1062 16.2213 33.3281 16.4852 34.4641 16.9777C35.6001 17.4703 36.6279 18.1819 37.4887 19.0719C38.274 19.9381 38.8775 20.9532 39.2633 22.0569C39.6492 23.1607 39.8096 24.3306 39.735 25.4975C39.7384 25.695 39.819 25.8832 39.9596 26.022C40.1001 26.1608 40.2894 26.239 40.4869 26.24L40.5169 26.2794C40.7158 26.2779 40.9062 26.1982 41.0469 26.0575C41.1876 25.9168 41.2673 25.7264 41.2687 25.5275C41.3362 22.5481 40.41 20.0487 38.5931 18.0462C36.7669 16.0437 34.2187 14.9206 30.9656 14.6975H30.8588ZM32.0906 18.74C31.065 18.71 31.0256 20.2437 32.0419 20.2737C34.5131 20.4012 35.7131 21.65 35.8706 24.2187C35.8741 24.4137 35.9537 24.5996 36.0924 24.7366C36.2312 24.8737 36.4181 24.9509 36.6131 24.9519H36.6431C36.7434 24.9476 36.8418 24.9233 36.9326 24.8806C37.0234 24.8378 37.1048 24.7775 37.172 24.7029C37.2392 24.6284 37.2908 24.5412 37.324 24.4465C37.3571 24.3518 37.3711 24.2514 37.365 24.1512C37.1888 20.8025 35.3625 18.9162 32.1206 18.7419H32.0906V18.74Z" fill="white"/>
</svg>
